# xmcd
#
# Track frame offsets:
#	150
#	18360
#	39300
#	54152
#	69660
#	88375
#	104330
#	127635
#	145835
#	165700
#	181370
#	197535
#	214060
#	233827
#
# Disc length: 3449 seconds
#
# Revision: 0
# Processed by: cddbd v1.5PL3 Copyright (c) Steve Scherf et al.
# Submitted via: dBpowerAMP V4.0
#
DISCID=b80d770e
DTITLE=Jerry Adriani - Io
DYEAR=1900
DGENRE=Latin
TTITLE0=Amore Scusami
TTITLE1=Se Stiamo Insieme
TTITLE2=Io Che Amo Solo Te
TTITLE3=Grande Grande Grande
TTITLE4=Nel Blu Dipinto Di Blu (Volare)
TTITLE5=Torna Sorriento
TTITLE6=Estate
TTITLE7=Anema e Core
TTITLE8=Sapore Di Sale
TTITLE9=Senza Fine
TTITLE10=Al Di La
TTITLE11=Tu Sei Cosi
TTITLE12=E Po Che Fa
TTITLE13=Annamaria-Parlami D'Amore Mariu-Tereza-Roberta
EXTD=
EXTT0=
EXTT1=
EXTT2=
EXTT3=
EXTT4=
EXTT5=
EXTT6=
EXTT7=
EXTT8=
EXTT9=
EXTT10=
EXTT11=
EXTT12=
EXTT13=
PLAYORDER=
